<svg xmlns="http://www.w3.org/2000/svg" width="132" height="132">
  <defs>
    <radialGradient id="c" cx="158.43" cy="578.09" r="65" fx="158.43" fy="578.09" gradientTransform="matrix(0 -1.98 1.84 0 -1031.4 454)" gradientUnits="userSpaceOnUse" href="#a"/>
    <radialGradient id="d" cx="147.69" cy="473.45" r="65" fx="147.69" fy="473.45" gradientTransform="matrix(.17 .87 -3.58 .72 1648.35 -458.5)" gradientUnits="userSpaceOnUse" href="#b"/>
    <linearGradient id="b">
      <stop offset="0" stop-color="#3771c8"/>
      <stop offset=".13" stop-color="#3771c8"/>
      <stop offset="1" stop-color="#60f" stop-opacity="0"/>
    </linearGradient>
    <linearGradient id="a">
      <stop offset="0" stop-color="#fd5"/>
      <stop offset=".1" stop-color="#fd5"/>
      <stop offset=".5" stop-color="#ff543e"/>
      <stop offset="1" stop-color="#c837ab"/>
    </linearGradient>
  </defs>
  <path fill="url(#c)" d="M65.03 0C37.89 0 29.95.03 28.41.16c-5.57.46-9.04 1.34-12.82 3.22a26 26 0 0 0-7.47 5.46Q1.95 15.26.6 24.66C.14 27.7.02 28.32 0 43.84v21.13c0 27.12.03 35.05.16 36.59.45 5.42 1.3 8.83 3.1 12.56a27.4 27.4 0 0 0 17.75 14.5c2.68.69 5.64 1.07 9.44 1.25 1.61.07 18.02.12 34.44.12s32.84-.02 34.41-.1c4.4-.2 6.96-.55 9.78-1.28a27.2 27.2 0 0 0 17.75-14.53c1.77-3.64 2.66-7.18 3.07-12.32.08-1.12.12-18.98.12-36.8 0-17.84-.04-35.67-.13-36.79-.4-5.22-1.3-8.73-3.12-12.44a26 26 0 0 0-5.57-7.62Q114.76 1.95 105.37.6C102.33.16 101.73.03 86.2 0z" transform="translate(1 1)"/>
  <path fill="url(#d)" d="M65.03 0C37.89 0 29.95.03 28.41.16c-5.57.46-9.04 1.34-12.82 3.22a26 26 0 0 0-7.47 5.46Q1.95 15.26.6 24.66C.14 27.7.02 28.32 0 43.84v21.13c0 27.12.03 35.05.16 36.59.45 5.42 1.3 8.83 3.1 12.56a27.4 27.4 0 0 0 17.75 14.5c2.68.69 5.64 1.07 9.44 1.25 1.61.07 18.02.12 34.44.12s32.84-.02 34.41-.1c4.4-.2 6.96-.55 9.78-1.28a27.2 27.2 0 0 0 17.75-14.53c1.77-3.64 2.66-7.18 3.07-12.32.08-1.12.12-18.98.12-36.8 0-17.84-.04-35.67-.13-36.79-.4-5.22-1.3-8.73-3.12-12.44a26 26 0 0 0-5.57-7.62Q114.76 1.95 105.37.6C102.33.16 101.73.03 86.2 0z" transform="translate(1 1)"/>
  <path fill="#fff" d="M66 18c-13.03 0-14.67.06-19.79.29-5.1.23-8.6 1.04-11.65 2.23a23.5 23.5 0 0 0-8.5 5.54 24 24 0 0 0-5.54 8.5c-1.2 3.05-2 6.54-2.23 11.65S18 52.96 18 66s.06 14.67.29 19.79c.24 5.1 1.04 8.6 2.23 11.65a23.5 23.5 0 0 0 5.54 8.5 23.5 23.5 0 0 0 8.5 5.54c3.05 1.19 6.54 2 11.65 2.23s6.75.29 19.79.29 14.67-.06 19.79-.29c5.1-.23 8.6-1.04 11.65-2.23a23.5 23.5 0 0 0 8.5-5.54 24 24 0 0 0 5.54-8.5c1.18-3.05 1.99-6.54 2.23-11.65S114 79.04 114 66s-.06-14.67-.3-19.8c-.23-5.1-1.04-8.59-2.22-11.64a24 24 0 0 0-5.54-8.5 23.5 23.5 0 0 0-8.5-5.54c-3.06-1.19-6.55-2-11.66-2.23S79.03 18 65.98 18zm-4.3 8.65H66c12.82 0 14.34.05 19.4.28 4.68.21 7.22 1 8.91 1.65 2.24.87 3.84 1.9 5.52 3.59a15 15 0 0 1 3.59 5.52c.66 1.69 1.44 4.23 1.65 8.9.23 5.07.28 6.59.28 19.4s-.05 14.33-.28 19.39c-.21 4.68-1 7.22-1.65 8.9a15 15 0 0 1-3.6 5.52 15 15 0 0 1-5.5 3.6c-1.7.65-4.24 1.43-8.92 1.65-5.06.23-6.58.28-19.4.28s-14.33-.05-19.4-.28c-4.67-.22-7.21-1-8.9-1.66a15 15 0 0 1-5.52-3.59 15 15 0 0 1-3.6-5.52c-.65-1.69-1.44-4.23-1.65-8.9-.23-5.07-.28-6.59-.28-19.4s.05-14.33.28-19.4c.21-4.67 1-7.21 1.65-8.9a15 15 0 0 1 3.6-5.53 15 15 0 0 1 5.52-3.59c1.69-.66 4.23-1.44 8.9-1.65 4.44-.2 6.15-.26 15.1-.27zm29.93 7.97a5.76 5.76 0 1 0 0 11.52 5.76 5.76 0 0 0 0-11.52M66 41.35a24.65 24.65 0 1 0 0 49.3 24.65 24.65 0 0 0 0-49.3M66 50a16 16 0 1 1 0 32 16 16 0 0 1 0-32"/>
</svg>

