<?xml version="1.0" encoding="UTF-8" standalone="no"?>
<svg
   width="1000"
   height="1000"
   version="1.1"
   id="svg268"
   sodipodi:docname="logo_estimular.svg"
   inkscape:version="1.3.2 (091e20e, 2023-11-25)"
   xmlns:inkscape="http://www.inkscape.org/namespaces/inkscape"
   xmlns:sodipodi="http://sodipodi.sourceforge.net/DTD/sodipodi-0.dtd"
   xmlns="http://www.w3.org/2000/svg"
   xmlns:svg="http://www.w3.org/2000/svg">
  <defs
     id="defs268" />
  <sodipodi:namedview
     id="namedview268"
     pagecolor="#ffffff"
     bordercolor="#666666"
     borderopacity="1.0"
     inkscape:showpageshadow="2"
     inkscape:pageopacity="0.0"
     inkscape:pagecheckerboard="0"
     inkscape:deskcolor="#d1d1d1"
     inkscape:zoom="1.1808461"
     inkscape:cx="564.42579"
     inkscape:cy="486.09212"
     inkscape:window-width="1920"
     inkscape:window-height="1048"
     inkscape:window-x="0"
     inkscape:window-y="0"
     inkscape:window-maximized="1"
     inkscape:current-layer="g8" />
  <defs
     id="defs1">
    <filter
       id="blue"
       x="0"
       y="0"
       width="1"
       height="1">
      <feColorMatrix
         type="hueRotate"
         values="143"
         id="feColorMatrix1" />
    </filter>
    <filter
       id="purple"
       color-interpolation-filters="sRGB"
       x="0"
       y="0"
       width="1"
       height="1">
      <feColorMatrix
         type="matrix"
         values="0.5364 0 0 0 0.4636  0 1.6325 0 0 -0.6325  0 0 0.5045 0 0.4955  0 0 0 1 0"
         id="feColorMatrix2" />
    </filter>
    <filter
       id="yellow"
       color-interpolation-filters="sRGB"
       x="0"
       y="0"
       width="1"
       height="1">
      <feColorMatrix
         type="matrix"
         values="0.2318 0 0 0 0.7682  0 1.0171 0 0 -0.0171  0 0 1.0811 0 -0.0811  0 0 0 1 0"
         id="feColorMatrix3" />
    </filter>
    <filter
       id="vordo"
       color-interpolation-filters="sRGB"
       x="0"
       y="0"
       width="1"
       height="1">
      <feColorMatrix
         type="matrix"
         values="0.2252 0 0 0 0.7748  0 1.8205 0 0 -0.8205  0 0 0.7027 0 0.2973  0 0 0 1 0"
         id="feColorMatrix4" />
    </filter>
    <filter
       id="blue1"
       color-interpolation-filters="sRGB"
       x="0"
       y="0"
       width="1"
       height="1">
      <feColorMatrix
         type="matrix"
         values="7.1515 0 0 0 -6.1515  0 0.3991 0 0 0.6009  0 0 0.2051 0 0.7949  0 0 0 1 0"
         id="feColorMatrix5" />
    </filter>
    <filter
       id="yellow1"
       color-interpolation-filters="sRGB"
       x="0"
       y="0"
       width="1"
       height="1">
      <feColorMatrix
         type="matrix"
         values="0.3030 0 0 0 0.6970  0 0.2864 0 0 0.7136  0 0 1.4872 0 -0.4872  0 0 0 1 0"
         id="feColorMatrix6" />
    </filter>
    <filter
       id="green1"
       color-interpolation-filters="sRGB"
       x="0"
       y="0"
       width="1"
       height="1">
      <feColorMatrix
         type="matrix"
         values="3.6970 0 0 0 -2.6970  0 0.3662 0 0 0.6338  0 0 1.4295 0 -0.4295  0 0 0 1 0"
         id="feColorMatrix7" />
    </filter>
    <filter
       id="purple1"
       color-interpolation-filters="sRGB"
       x="0"
       y="0"
       width="1"
       height="1">
      <feColorMatrix
         type="matrix"
         values="2.4242 0 0 0 -1.4242  0 0.8967 0 0 0.1033  0 0 0.7179 0 0.2821  0 0 0 1 0"
         id="feColorMatrix8" />
    </filter>
  </defs>
  <path
     fill="#dc167a"
     d="m 204.5,649 c -0.0176,-0.21376 0.10311,-0.41493 0.3,-0.5 l 11.5,-2.9 c 0.83253,-0.25406 1.70579,0.25151 1.9,1.1 2.26667,8 4.33333,14.73333 6.2,20.2 81.97293,241.44327 432.88301,298.93307 622.4,88.3 C 916.2593,677.54808 971.34041,535.89002 896.5,396.1 836.94423,285.19391 709.44868,216.27539 564.6,223.8 c -0.55974,0.026 -33.89912,1.6248 -75,11.9 -0.80004,0.18842 -1.60271,-0.3021 -1.8,-1.1 L 485,223.2 c -0.083,-0.46205 0.1666,-0.91962 0.6,-1.1 1.26667,-0.53333 2.76667,-1 4.5,-1.4 34.9465,-8.13301 53.16554,-9.46602 72.8,-10.9 61.88913,-4.7607 193.33234,6.13296 292.1,106.8 117.1952,118.9982 117.19961,294.51704 25.5,419.3 C 698.01636,983.68361 305.06913,938.09401 212,674.8 c -1.73333,-4.93333 -3.8,-11.36667 -6.2,-19.3 -0.8,-2.66667 -1.23333,-4.83333 -1.3,-6.5 z"
     id="path42"
     sodipodi:nodetypes="ccccccccccccccccccc"
     inkscape:label="curculo"
     style="display:inline"
     sodipodi:insensitive="true" />
  <g
     id="g8"
     inkscape:label="texto"
     style="display:inline">
    <path
       fill="#dc167a"
       d="m 783.1,497 q -2.4,-5.9 -1.6,-10.7 a 2.6,2.5 68.3 0 1 0.5,-1.2 q 4.9,-6.4 5.4,-14.9 a 0.3,0.3 -17 0 0 -0.5,-0.2 l -0.4,0.2 c 1.8,-8.4 2.7,-17.8 4.2,-25.3 1.1,-5.3 1.3,-9.2 2.5,-15.5 2.3,-12.1 2.5,-21.8 3,-36.1 0,-3.8 1.6,-13.5 5.8,-14.8 6.5,-1.9 9.6,14.2 10.8,19.2 q 3.2,14 6.8,36 7,43.3 7.2,43.8 a 3.5,3.4 -67.7 0 0 0.5,1.1 l 3.5,5.5 a 0.4,0.4 -52 0 0 0.8,0 l 2.5,-7.4 a 20,19.8 -30.7 0 0 0.7,-2.8 q 0.4,-2.4 0.5,-12.4 0.3,-30.6 0.2,-50 c 0,-4.8 0.1,-9.4 -2,-13.8 -2,-3.9 -2.7,-7 -1.8,-11.7 q 1,-4.8 4.8,-5.6 a 4.6,4.2 -47.6 0 1 0.8,0 c 3,0 7.3,1.1 10.6,0.7 6,-0.7 9.9,-3.6 15.3,1.8 q 4.9,4.7 6.4,13.2 2.7,14.5 0.4,27.6 c -1,5 -2.7,8.4 -4.3,12.3 -0.7,1.7 -0.4,3.2 0.8,4.9 q 4.9,7 5.9,16.5 0.7,6.8 1.1,18.7 a 7.1,7.1 25 0 0 1.5,4 l 1.9,2.5 a 2.9,2.8 -69.7 0 1 0.5,1.2 c 1,5 -0.1,12.6 -5,15.7 a 3.3,3.3 -69.5 0 1 -0.8,0.4 q -8,2.4 -11,-5.6 -2.7,-7.2 -3,-11.3 -1.2,-14.5 -3.3,-30 -0.2,-2.1 -1.6,-3.7 a 1.4,1.4 30.9 0 0 -2.3,0.6 q -0.4,1.4 -0.4,3.1 c -0.2,8.6 -0.1,16.7 0.7,24.8 q 0.2,1.7 1.7,4.5 c 3.4,6.3 1.3,15.4 -6.9,16.6 q -11.7,1.6 -14.2,-9 a 0.41231056,0.41231056 38.7 0 0 -0.8,0.2 q 0,3.5 -2,5.9 c -4,4.5 -19.1,4.7 -21.5,-1.8 -0.8,-2.5 -1.3,-6.4 -0.4,-9.6 0.8,-2.3 2.9,-3.9 3.2,-6.7 q 0.9,-6.6 -5.7,-7.9 -3.6,-0.7 -6.4,-0.2 a 3,3 1.4 0 0 -2.3,2.2 q -1,4.2 -0.6,7.8 a 2.5,2.4 -64.3 0 0 0.3,1 l 2,2.1 c 1.7,1.9 1.3,5.2 1.2,8 -0.2,3.7 -3,7 -6.3,7.9 q -5.3,1.3 -8.9,-1.8 z M 514.6,412.2 a 1.5,1.5 -45.8 0 1 2.8,0 q 1.8,4.6 2.3,10.6 c 0.7,10.9 0.8,22.9 -1.1,34.2 q -0.6,3.2 -2.1,6 a 0.7,0.7 32.8 0 1 -1,0.3 q -1.3,-1 -1.4,-2.7 c -0.4,-5.6 -0.5,-10.6 -2.7,-13.8 a 1.6,1.6 -45.6 0 0 -2.7,0 q -0.4,0.8 -0.6,2.5 -0.4,5.9 0.2,26 0.1,4.4 4.4,4.6 c 6.8,0.4 8.2,-3.9 9.9,-9.2 1.4,-4.3 0.8,-9.8 3.6,-13.4 a 1.6,1.6 44 0 1 2.4,0 q 1,1.2 1.2,3 1.6,19.5 -3.6,37.6 a 1.5,1.5 18.1 0 1 -2,1 23.7,23.7 0 0 0 -9.4,-1.8 H 494 c -2.2,0 -3.7,-0.8 -4.1,-3 q -1,-4.3 -0.1,-8 c 0.3,-1.6 2.3,-3 2.7,-4.7 1,-4.6 1,-10 1.4,-15.7 q 1.6,-30.8 -0.6,-62.2 -0.1,-2 -0.6,-4.5 a 3.3,3.3 -72 0 0 -0.8,-1.6 q -1.7,-1.8 -1.9,-2.4 -2,-5.2 0,-11.8 a 1.6,1.6 -8.7 0 1 0.7,-1 q 1.6,-1 3.3,-1 13.1,-0.2 18,0 5.4,0.2 9.8,-2.5 a 2.2,2.2 59 0 1 3,0.7 q 1.3,2.2 1.8,5 1.5,10.7 1.2,18.6 -0.1,5.3 -1.2,9 a 2,1.8 -71.3 0 1 -2.5,1.5 q -0.5,-0.2 -1,-1.4 c -2.9,-5.8 -1.5,-13.6 -9.7,-14.6 -3.6,-0.4 -5.6,1.4 -5.7,5 q -0.4,11 0,24.1 a 2.7,2.6 3 0 0 2.3,2.5 h 0.2 a 2.2,2.1 6.6 0 0 2.4,-1.9 l 1,-10.4 q 0.3,-2.6 1,-4.6 z M 560.2,382 a 1.7,1.7 -35.4 0 1 2.7,0.5 60.3,60.3 0 0 1 4.5,31.5 q -0.2,2.7 -1,4.3 a 2.1,1.7 -57.5 0 1 -2.9,1 q -1.1,-1 -1.6,-2.2 l -4.6,-11.4 q -1.2,-2.7 -3.5,-4.8 a 2,2 -46.8 0 0 -2.8,0 c -2.6,2.8 -2.5,6.8 -2,10.3 q 0.5,4.6 4,7.9 c 3.3,3.2 7.5,6.5 10,11 q 3.5,6.2 4.6,13.4 2.3,15.7 -0.4,32.5 -1,7 -4.3,13.2 c -3.3,6.3 -9.6,12.7 -17.5,9.7 q -7.8,-3 -11,-10.1 a 7.3,7.3 -62 0 1 -0.6,-2 q -2.3,-14.3 -2,-30.3 0.2,-2.6 1.8,-4.3 a 1.1,1.1 -35.4 0 1 1.8,0.3 c 3.9,8.1 3,18 9.6,24.7 a 3.6,3 52.8 0 0 3.7,1 c 4.3,-2 3.8,-8.6 3.1,-12.5 -0.4,-2.2 -1.8,-4.1 -3.5,-5.6 q -6.3,-5.9 -8.8,-10.8 A 61.3,61.3 0 0 1 533,427 a 81.8,81.8 0 0 1 3.9,-35 q 2.7,-7.5 7.7,-11.5 c 4.9,-3.8 9,-0.4 13.4,2.8 a 0.9,0.9 -48 0 0 1,0 l 1.2,-1.1 z m 39.4,22.8 q -0.7,1.5 -0.9,4.2 c -0.4,8.3 0,17.2 0,26 v 30.5 c 0,5.3 -0.1,9.3 2.5,12.9 7,9.2 1.4,21.7 -10.7,20.7 q -14,-1.1 -13,-15.3 c 0.1,-2.5 3,-5 4.5,-7.2 a 4,4 -27.4 0 0 0.6,-2 c 1,-18.7 0.3,-37.3 0.9,-55.6 q 0.2,-7 -0.3,-13.8 a 0.8,0.8 63.3 0 0 -1.5,-0.5 q -1,1.2 -1.3,2.7 -0.8,5.3 -3.7,13.3 -0.9,2.2 -2.4,2.7 a 2.5,2 70.4 0 1 -2.8,-1.6 q -1.2,-3.2 -1.2,-6.6 c 0,-13.2 0.4,-21.8 4,-32.3 q 0.8,-2.1 2.5,-3.6 a 1,1 35 0 1 1,-0.1 c 2,0.7 3.6,1.8 5.8,1.8 l 12.6,0.1 c 4,0 5.3,-0.3 8.6,-2.2 a 1.8,1.8 -31.2 0 1 2.4,0.6 q 2.3,3.7 3.3,8.5 0.6,3 2,14.7 c 0.7,5.8 1.2,17.2 -3,20.5 a 1.8,1.6 -42.8 0 1 -2.2,0 q -1.7,-1.4 -2.4,-3.6 -2,-6.4 -3.6,-14.5 a 1,1 -37.2 0 0 -1.7,-0.3 z"
       id="path186" />
    <path
       fill="#dc167a"
       d="m 614,490.9 q -0.8,-6 2.1,-10.8 1.1,-1.8 1.3,-6.7 0.6,-24 0.1,-61.1 0,-4.4 -0.6,-8.8 a 5,4.6 33.3 0 0 -0.3,-1 c -2.3,-6.2 -6.3,-14.8 0.7,-19.8 5.2,-3.8 11.6,-5 16.7,-0.9 3.4,2.8 3.5,9.7 2.5,13.4 a 3.8,3.6 68.2 0 1 -0.4,1 c -3.6,6.6 -3.3,11.5 -3.4,20.2 q -0.3,29 0.3,55.6 l 0.5,3.5 a 3.4,3.3 -64.7 0 0 0.4,1 c 2,3.8 3.6,6.7 3.3,10.3 -0.5,5.4 -1.1,8.8 -7,11 -6.7,2.6 -15.2,1.3 -16.3,-7 z"
       id="path187" />
    <path
       fill="#dc167a"
       d="m 667.3,422.5 q 0,1 0.6,0.8 a 0.5,0.4 81.8 0 0 0.3,-0.4 l 6.9,-37.2 a 4.5,4.3 -25.5 0 1 0.5,-1.5 c 2,-3.3 5.5,-4.7 9.2,-3.3 q 4,1.6 4.1,7 a 0.7,0.7 55.8 0 0 1.3,0.2 v -0.8 q 0.9,4.2 -0.2,7.7 -2.5,8.2 -2.7,12.3 -1.6,33.5 0.1,64.9 0.3,5.5 2,10 1.8,4.4 1.6,6.1 c -0.3,5.4 -2.5,10 -8.4,10.7 -6.2,0.8 -13,-1.4 -12.9,-8.7 0,-3.2 0.3,-5.4 1.6,-8.6 q 1.4,-3.5 1.6,-9.2 0.4,-12 0,-25.2 a 0.7,0.7 -10.5 0 0 -1,-0.7 l -0.4,0.2 a 1,1 84 0 0 -0.6,0.8 q -1,7.8 -2.4,14 c -0.9,4.3 -1.2,7.8 -1.7,12.4 -0.6,5.8 -2,11.2 -3,17.8 q -0.2,1.4 -1,2.2 a 1,1 61 0 1 -1.9,-0.5 q -2,-6.9 -2.8,-12.8 c -1.4,-9.4 -2.7,-16.2 -4,-27.2 q -0.6,-4.4 -2.1,-8.2 a 0.30413813,0.30413813 -55 0 0 -0.6,0.1 q -0.9,17 0,34.5 a 3.7,3.7 -67.4 0 0 0.9,2.3 q 2.8,3.2 2.3,8.7 c -0.9,10.1 -16,11.4 -16.2,0.2 q 0,-3.6 0.3,-4.9 0.2,-1 2.2,-4.2 a 6.2,6.1 -27 0 0 0.8,-2.5 q 0.6,-6 0.7,-9.2 0.8,-36.6 0.7,-51.8 0,-8.6 -1,-16 a 6,6 -66 0 0 -1,-2.8 q -4,-5.6 -2,-13.4 1.2,-4.8 6.6,-6.4 8.8,-2.7 10.5,6 l 8,42.3 a 1,1 -45 0 0 2,0 z"
       id="path188" />
    <path
       fill="#943830"
       d="m 690.1,387.3 q 0.1,0.6 0,0.8 a 0.7,0.7 55.8 0 1 -1.2,-0.3 q -0.2,-5.3 -4,-6.9 c -3.8,-1.4 -7.3,0 -9.3,3.3 a 4.5,4.3 -25.5 0 0 -0.5,1.5 l -7,37.3 a 0.5,0.4 81.8 0 1 -0.2,0.3 q -0.6,0.3 -0.6,-0.8 c 0.7,-5 2.2,-10.6 2.8,-15 q 1.8,-11.8 3.8,-21 1.9,-8.3 10.5,-7 a 2.9,2.8 62 0 1 0.9,0.4 q 4.4,2.1 4.8,7.4 z"
       id="path189" />
    <path
       fill="#dc167a"
       d="m 718.4,474.3 q 2.1,0.1 3.8,-1.7 c 4.7,-5.3 5,-13.9 5,-20.5 l -0.1,-45.4 q 0,-2.1 -0.6,-6.8 a 4.3,4.2 -65.2 0 0 -0.6,-1.7 l -1.6,-2.4 c -2,-2.7 -2.1,-6.2 -1.6,-9.4 0.7,-4.9 4.4,-7 9,-7.1 9.1,-0.1 10.5,10 7.3,16.2 l -2.1,4.3 a 6.1,6 60.5 0 0 -0.4,1.4 q -0.5,3.8 -0.4,8.8 0.4,28 -0.2,53.8 c -0.3,12.1 -3.9,32 -17.8,35.7 -8.6,2.4 -16.4,-8.7 -18.6,-15.8 q -2,-6.3 -3.4,-14.8 -0.7,-4.6 -0.7,-15.3 v -25.9 q 0.4,-13 0,-22.7 c 0,-2.2 -0.6,-4.3 -1.9,-7 q -2.2,-4.6 -1.4,-10.2 c 1.3,-9.1 12.1,-10.1 18.7,-6.7 a 6,6 0 0 1 3.3,3.8 c 1.6,4.9 1.3,9.7 -1.4,14.1 -2.2,3.5 -2,7 -1.9,11 l -0.1,40.2 c 0,8.3 1.1,18.8 6.4,23.6 a 2.1,2 67.2 0 0 1.3,0.5 z m 58.3,-18.5 q 1.6,0.3 2,2 c 1.4,5 1.2,10.7 1,16.6 q -0.2,12.3 -3.7,23.4 c -0.7,2.3 -2,2.1 -3.9,1.2 q -3.6,-1.7 -4.9,-1.8 h -21 c -3.8,0 -4.4,-7 -3.8,-9.5 0.5,-2.5 3,-5.3 3.5,-7.3 q 1.6,-6 1.6,-13.9 -0.5,-45 -0.5,-58.5 0,-7 -3.7,-10.4 c -1.7,-1.6 -1.5,-5.8 -1.3,-8.5 0.7,-8.4 9,-10.7 16.2,-9.5 6.7,1.2 9.2,7.4 8.1,13.6 q -0.2,1.1 -2,3.6 -2.7,4 -2.7,10.9 v 51.6 c 0,4 -0.5,17.4 3.6,19 7.2,2.8 8.4,-13 8.6,-17 q 0.2,-3.4 1.8,-5.1 a 1.2,1.2 -62.5 0 1 1.1,-0.4 z"
       id="path190" />
    <path
       fill="#69174f"
       d="m 783.1,497 q -4.6,-4.4 -2.6,-11.4 a 3,3 -22.5 0 1 0.4,-0.8 l 3.4,-5.3 a 4.3,4.3 -23.4 0 0 0.6,-1.4 l 1.6,-7.9 0.4,-0.2 a 0.3,0.3 -17 0 1 0.5,0.3 q -0.5,8.4 -5.4,14.8 a 2.6,2.5 68.3 0 0 -0.5,1.2 q -0.8,4.8 1.6,10.7 z"
       id="path255"
       style="display:inline;fill:#dc167a;fill-opacity:1" />
    <path
       d="m 516.3,631.8 v 2.8 a 2.8,2.8 -6.7 0 1 -2.2,2.7 c -9.3,2.3 -19.2,1.9 -23.6,-8 q -2.8,-6.4 -1.5,-14.8 c 2.3,-13.9 15.1,-18.1 27,-13 a 1.9,1.9 -67.3 0 1 1,2.4 l -1.4,3.2 a 1.7,1.6 -66.3 0 1 -2.2,1 c -13,-6 -17.6,3.7 -16.2,14.7 1.3,10.3 9.2,10 17,7.5 a 1.6,1.6 81.3 0 1 2,1.5 z M 599,608.3 a 0.5,0.5 -62.6 0 0 0.5,0.6 h 6 a 1.8,1.8 36.8 0 1 1.7,1.8 v 2.3 a 1.9,1.9 90 0 1 -1.8,1.9 h -5.7 a 0.7,0.7 -89.6 0 0 -0.7,0.7 v 13.6 c 0.1,4.2 4.7,2.8 7.1,2.5 a 1.2,1.2 -3.6 0 1 1.4,1.2 v 3 a 1.9,1.9 -8.5 0 1 -1.4,1.8 c -4.4,1.4 -11,1.8 -13.9,-3 q -1,-1.8 -1.1,-6 V 616 a 1,1 6.2 0 0 -0.8,-1 l -2.3,-0.4 a 1.2,1.2 86 0 1 -0.9,-0.8 c -0.8,-2.4 2.8,-3.7 4,-4.9 a 3.2,3.1 79.2 0 0 1,-1.3 c 1,-3.2 1.6,-6.3 6.1,-4.8 a 1,1 -81.4 0 1 0.7,1 v 4.5 z"
       id="path265" />
    <path
       fill="#a1959f"
       d="m 662.6,607.9 q 0.1,-0.5 0.3,-0.6 a 1,0.8 80.8 0 1 1.2,1 q 0,0.4 -0.5,0.6 a 0.8,0.7 87.5 0 1 -1,-1 z"
       id="path266" />
    <path
       d="m 620.2,612.8 a 0.6,0.6 -31.3 0 0 1,0.2 c 3,-2.8 4.7,-5 9.2,-4.7 a 1.5,1.5 2.5 0 1 1.4,1.5 v 4.7 a 1.4,1.4 0.8 0 1 -1.4,1.3 c -5.1,-0.1 -9.4,1.7 -9.3,7.7 v 13.4 a 1,1 25.1 0 1 -1,1 h -6 a 1,1 -45 0 1 -1,-1 v -26.7 a 1.4,1.4 88 0 1 1.3,-1.4 h 3.3 a 2.6,2 82.6 0 1 2,1.9 l 0.5,2 z m -88.3,12.6 a 1.9,1.9 73.5 0 0 -1.6,2.9 l 1,1.5 a 6.2,6.2 73 0 0 5.3,2.8 q 5.8,-0.1 8.3,-1.5 a 1.6,1.6 -14.1 0 1 2.3,1.4 v 1.7 a 3.4,3.4 -6.8 0 1 -2.6,3.3 c -7,1.8 -15.5,1.7 -19.9,-4.2 -3.4,-4.6 -3.4,-12 -1.4,-17.3 a 12,12 0 0 1 10.5,-7.4 q 5.1,-0.4 7.8,0.9 c 6.1,2.7 7.8,9 7,15.2 a 0.9,0.9 -86.5 0 1 -0.8,0.7 h -16 z M 562.3,612 a 0.4,0.4 -29.4 0 0 0.7,0.2 q 5,-5.3 12.4,-3.3 6.2,1.7 6.5,8.8 0.3,8.9 0,19.1 a 1.3,1.3 -89.3 0 1 -1.2,1.3 h -5.4 a 1.3,1.2 -89.8 0 1 -1.3,-1.3 q 0.2,-13.4 0.1,-13.5 0,-3.5 -0.6,-5.9 a 3.5,3.4 84.2 0 0 -3.1,-2.6 q -7,-0.4 -7.2,7.2 -0.2,9.8 0,14.6 a 1.4,1.4 89 0 1 -1.4,1.4 h -5.4 a 1.3,1.3 -45 0 1 -1.3,-1.3 v -26.6 a 1.2,1.2 83.2 0 1 1,-1.1 q 5.4,-1.3 6.2,3 z M 664,624.8 a 12.7,12.7 0 0 1 -11.9,13.4 l -2.3,0.2 a 12.7,12.7 0 0 1 -13.5,-11.8 l -0.3,-4.5 a 12.7,12.7 0 0 1 11.9,-13.5 l 2.3,-0.1 a 12.7,12.7 0 0 1 13.5,11.8 z"
       id="path267" />
    <path
       d="m 580.9,679 5,-6.6 a 3.3,3.3 -71.4 0 1 2.5,-1.3 h 6 a 0.8,0.8 23 0 1 0.4,1.3 q -4,3.8 -8.1,6.7 -1.5,1 -5.6,0.5 a 0.4,0.4 22 0 1 -0.2,-0.6 z m 90.5,-3.3 a 3.5,3.5 0 0 1 -3.5,3.4 h -1.6 a 3.5,3.5 0 0 1 -3.4,-3.4 v -0.6 a 3.5,3.5 0 0 1 3.4,-3.5 h 1.6 a 3.5,3.5 0 0 1 3.5,3.4 z M 432,674 h 12.9 a 1.6,1.6 89.8 0 1 1.5,1.5 v 3.7 a 1.5,1.5 -90 0 1 -1.4,1.5 h -8 a 1,1 45 0 0 -1,1 v 29.5 a 0.8,0.8 -2.8 0 1 -0.8,0.8 h -6.6 a 0.8,0.8 2.9 0 1 -0.7,-0.8 v -29.6 a 1,1 -88.2 0 0 -1,-1 h -8 a 1.5,1.5 -90 0 1 -1.4,-1.4 v -3.7 a 1.6,1.6 -89.7 0 1 1.6,-1.6 h 12.8 z m 217,8.9 h 6 a 1.8,1.8 25.2 0 1 1.7,1.8 v 2.3 a 1.9,1.9 -54.5 0 1 -1.8,1.9 h -5.7 a 0.7,0.7 -89.6 0 0 -0.7,0.7 v 13.6 c 0.1,4.2 4.7,2.8 7.1,2.5 a 1.2,1.2 -3.6 0 1 1.4,1.2 v 3 a 1.9,1.9 -8.4 0 1 -1.4,1.8 c -4.4,1.3 -11,1.7 -13.9,-3 q -1,-1.8 -1.1,-6.1 V 690 a 1,1 6.2 0 0 -0.8,-1 l -2.3,-0.5 a 1.2,1.2 86 0 1 -0.9,-0.7 c -0.8,-2.5 2.8,-3.8 4,-5 a 3.2,3.1 79.2 0 0 1,-1.2 c 1,-3.2 1.6,-6.3 6.1,-4.8 a 1,1 -81.3 0 1 0.8,1 v 4.5 a 0.5,0.5 -45 0 0 0.5,0.6 z M 491.2,687 c 3,-2.8 4.7,-5 9.2,-4.7 a 1.5,1.5 2.5 0 1 1.4,1.5 v 4.7 a 1.4,1.4 0.8 0 1 -1.4,1.3 c -5.1,-0.1 -9.4,1.7 -9.3,7.7 v 13.4 a 1,1 45 0 1 -1,1 h -6 a 1,1 0 0 1 -1,-1 v -26.7 a 1.4,1.4 88 0 1 1.3,-1.4 h 3.3 a 2.6,2 82.7 0 1 1.9,1.9 l 0.6,2 a 0.6,0.6 -31.3 0 0 1,0.3 z m 32.3,21.5 c -0.9,0.4 -2.4,2.6 -3.8,3.1 -7.4,2.7 -15.3,-0.3 -14.4,-9.4 0.8,-7.8 9.7,-8.2 16,-8.2 a 2,2 80 0 0 1.9,-2.8 l -0.2,-0.4 a 4,4 75 0 0 -4.4,-2.5 l -7,1.2 a 2.1,2.1 75 0 1 -2.4,-1.4 l -0.6,-1.6 a 2,2 -18.7 0 1 1.3,-2.6 c 6.6,-2.1 17.8,-3.3 20.7,4.8 q 0.7,2 0.6,10.7 v 11.7 a 0.8,0.8 -7.8 0 1 -0.6,0.8 q -0.8,0.2 -2.3,0.2 c -3.3,0 -2.8,-1 -4,-3.3 a 0.6,0.6 -25.7 0 0 -0.8,-0.3 z m -63.6,-9.1 a 1.9,1.9 73.4 0 0 -1.6,2.9 l 1,1.5 a 6.2,6.2 72.9 0 0 5.3,2.8 q 5.8,-0.1 8.3,-1.5 a 1.6,1.6 -14.2 0 1 2.3,1.4 v 1.7 a 3.4,3.4 -6.8 0 1 -2.6,3.3 c -7,1.8 -15.5,1.7 -19.9,-4.2 -3.4,-4.6 -3.4,-12 -1.4,-17.3 a 12,12 0 0 1 10.5,-7.4 q 5.1,-0.4 7.8,0.8 c 6.1,2.8 7.7,9.2 7,15.2 a 0.9,0.9 -86.6 0 1 -0.8,0.8 h -16 z m 88.1,9.9 a 0.3,0.3 20.9 0 0 -0.5,0.2 v 14.2 a 1.1,1.1 45 0 1 -1.1,1.1 h -5.7 a 1.1,1.1 -90 0 1 -1.1,-1.1 v -39.4 a 1.5,1.5 -8.1 0 1 1,-1.4 q 1.4,-0.4 4,0 a 1.5,1.4 69.4 0 1 1,0.3 q 0.8,0.8 1.3,2.5 a 0.5,0.5 -23.7 0 0 0.7,0.2 c 1.2,-0.7 2.4,-2 3.8,-2.6 q 2.9,-1.3 6.4,-0.7 c 5.3,0.8 8.3,6.2 8.8,11.1 0.7,7.3 -0.5,17.6 -9.8,18.7 q -4.7,0.6 -8.8,-3 z m 33.4,-9.9 a 1.9,1.9 73.3 0 0 -1.6,2.9 l 1,1.5 a 6.2,6.2 72.8 0 0 5.3,2.8 q 5.8,-0.1 8.3,-1.5 a 1.6,1.6 -14.2 0 1 2.3,1.4 v 1.7 a 3.4,3.4 -7 0 1 -2.6,3.3 c -7,1.8 -15.5,1.7 -19.9,-4.2 -3.4,-4.6 -3.4,-12 -1.4,-17.3 a 12,12 0 0 1 10.5,-7.4 q 5,-0.3 7.8,0.9 c 6,2.6 7.7,9 7,15.1 a 0.9,0.9 -86.6 0 1 -0.8,0.8 h -16 z m 116.5,5.1 a 1.3,1.3 73.5 0 1 2,1 v 3.1 a 3.2,3.2 -7.3 0 1 -2.5,3.1 c -8.9,2.3 -17.8,0.3 -19.6,-9.7 -1.3,-7.6 0.3,-16 8.4,-18.8 q 4.8,-1.7 12.7,0.3 a 1.8,1.8 -75.3 0 1 1.3,2.3 l -0.8,2.7 a 2,2 15.4 0 1 -2.4,1.4 c -4,-1 -8.8,-2.3 -10.5,2.2 q -2.2,5.6 0,11 c 1.8,4.3 8.7,3.2 11.4,1.4 z m 35.1,-5.8 a 12.7,12.7 0 0 1 -11.8,13.5 l -2.4,0.2 a 12.7,12.7 0 0 1 -13.5,-11.8 l -0.3,-4.4 a 12.7,12.7 0 0 1 11.8,-13.6 l 2.4,-0.1 a 12.7,12.7 0 0 1 13.5,11.7 z m -108.8,10.2 a 0.4,0.4 -29.5 0 0 -0.7,-0.2 q -5,5.3 -12.4,3.3 -6.1,-1.7 -6.4,-8.8 -0.4,-8.8 -0.2,-19 a 1.3,1.3 -89.4 0 1 1.3,-1.3 h 5.4 a 1.3,1.2 -89.9 0 1 1.3,1.2 l -0.1,13.6 q 0,3.4 0.7,5.8 a 3.5,3.4 84 0 0 3,2.6 q 7,0.4 7.2,-7.3 0.2,-9.7 0,-14.5 a 1.4,1.4 88.9 0 1 1.4,-1.4 h 5.4 a 1.3,1.3 -47.6 0 1 1.3,1.3 v 26.5 a 1.2,1.2 83.1 0 1 -1,1.2 q -5.3,1.3 -6.2,-3 z M 671,711 a 0.9,0.9 0 0 1 -0.8,1 H 664 a 0.9,0.9 0 0 1 -0.9,-1 v -27.2 a 0.9,0.9 0 0 1 1,-0.9 h 6.1 a 0.9,0.9 0 0 1 1,1 z"
       id="path268" />
  </g>
  <g
     id="g45"
     style="display:inline"
     inkscape:label="people"
     sodipodi:insensitive="true">
    <g
       id="g5"
       inkscape:label="guy3"
       style="display:inline">
      <path
         fill="#943830"
         d="m 115.3,349.6 q -0.7,-0.8 0,-2.4 1,-1.6 0.9,-2.2 c -0.2,-5.1 -11,-4.8 -9.2,1.9 a 1.7,1.7 -77.4 0 0 0.4,0.8 q 1.6,1.4 2,3 c -2.4,-1.4 -4.4,-3.9 -3.6,-6.7 1.4,-4.9 8.4,-5.1 11,-1.3 1.6,2.4 -0.1,4.9 -1.5,6.9 z"
         id="path148" />
      <path
         fill="#dc880f"
         d="m 115.3,349.6 q -0.1,0.9 0.4,1.5 l 1.9,0.3 a 0.1,0.1 35.6 0 1 0,0.2 l -0.3,0.1 q -0.7,0.2 -0.3,1.8 1,3.7 1.4,6 a 0.9,0.8 -2.1 0 1 -1,1 l -4.4,-0.4 a 0.8,0.8 -87.8 0 0 -1,0.9 v 2.8 a 0.8,0.8 81.6 0 0 1,0.7 l 7,-2 0.8,1.9 q -3,-1.3 -5.7,0.5 a 1.4,1.4 29.9 0 1 -1,0.3 l -1.7,-0.1 a 0.7,0.7 2.6 0 0 -0.8,0.6 v 1.5 l -1,-8.6 V 354 a 0.7,0.7 75.4 0 0 -1.1,-0.6 q -1.9,1 -3,2.2 -4,4.4 -8.1,8.6 a 1,1 67.4 0 0 -0.3,0.6 l -0.1,0.8 -0.6,-1.6 9.2,-9.3 a 2.4,0.7 -46.8 0 1 0.3,-0.2 l 2.4,-1.6 q 0.8,-0.4 0.1,-2.2 -0.4,-1.5 -2,-3 A 1.7,1.7 -77.4 0 1 107,347 c -1.9,-6.7 9,-7 9.2,-1.9 q 0,0.6 -0.8,2.2 -0.8,1.6 0,2.4 z"
         id="path149" />
      <path
         fill="#a2c316"
         d="m 121.8,359.1 q 2.1,0 3.5,2.3 a 1.8,1.8 -28.5 0 0 2.4,0.8 L 128,362 a 1.2,1.2 55.7 0 0 0.3,-1.8 q -3.2,-3.6 -7.6,-7.1 -1.2,-1 -2.4,-1 a 0.9,0.9 -14.1 0 0 -0.7,1.3 q 1.5,3.1 1.9,6.3 l 0.6,2.7 -7,2.1 a 0.8,0.8 81.6 0 1 -1,-0.7 V 361 a 0.8,0.8 -87.8 0 1 0.9,-0.9 l 4.5,0.4 a 0.9,0.8 -2.1 0 0 0.9,-1 q -0.4,-2.3 -1.4,-6 -0.4,-1.6 0.3,-1.8 l 0.3,-0.1 a 0.1,0.1 35.6 0 0 0,-0.2 l -1.9,-0.3 q 3.7,-1.1 5.9,1 6.5,6.4 8.8,8 a 1.7,1.7 -42.2 0 1 -0.2,2.8 l -1.6,1 a 2.4,2.4 54 0 1 -3,-0.5 z"
         id="path157" />
      <path
         fill="#f5c11a"
         d="m 121.8,359.1 q -0.6,-0.9 -1.6,-0.9 -1,0 -0.8,1.5 -0.3,-3.2 -1.8,-6.3 a 0.9,0.9 -14.1 0 1 0.7,-1.3 q 1.2,0 2.4,1 4.4,3.5 7.6,7 a 1.2,1.2 55.7 0 1 -0.3,2 h -0.3 a 1.8,1.8 -28.5 0 1 -2.4,-0.7 q -1.4,-2.3 -3.5,-2.3 z"
         id="path159" />
      <path
         fill="#f5c11a"
         d="m 110.6,358.6 q -1.4,1.1 -2.3,1.3 -0.6,-0.2 -1.5,0.5 l -7.7,6 a 0.7,0.7 -57.8 0 1 -0.5,0.2 h -0.3 l -0.3,-1.1 0.1,-0.8 a 1,1 67.4 0 1 0.3,-0.6 l 8.1,-8.6 q 1.1,-1.2 3,-2.2 a 0.7,0.7 75.4 0 1 1,0.6 v 4.7 z"
         id="path162" />
      <path
         fill="#688a21"
         d="m 108.3,360 -9.4,7.8 q -0.7,-0.7 -0.6,-1.3 l 0.3,0.1 a 0.7,0.7 -57.8 0 0 0.5,-0.1 l 7.7,-6.1 q 0.9,-0.7 1.5,-0.5 z"
         id="path170" />
      <path
         fill="#943830"
         d="m 120.8,364.4 7.4,12 -0.8,3.6 a 1.2,1.2 -69.5 0 1 -1.7,0.8 l -3.8,-2 -2.8,-4.6 a 0.6,0.6 -55.7 0 0 -1,0.2 q -1.2,6.6 -1,11.4 a 2.4,2.4 81.4 0 1 -1.8,2.5 l -2.7,0.7 a 1.5,1.5 86.8 0 1 -1.9,-1.6 c 0.5,-3.7 1,-6.8 1,-10.9 q -0.1,-4.6 0,-9.3 v -1.4 a 0.7,0.7 2.6 0 1 0.7,-0.8 l 1.8,0.2 a 1.4,1.4 29.9 0 0 1,-0.3 q 2.6,-1.8 5.5,-0.5 z"
         id="path176" />
      <path
         fill="#13479c"
         d="m 128.2,376.5 4.2,6.2 a 1.5,1.5 66 0 1 -0.9,2.2 l -3.2,0.8 a 2.5,2.5 -22.8 0 1 -2.7,-1 l -3.7,-6 3.8,2 a 1.2,1.2 -69.5 0 0 1.7,-0.7 z"
         id="path183" />
    </g>
    <g
       id="g7"
       inkscape:label="guy2_full">
      <g
         id="guy2"
         inkscape:label="guy2"
         style="display:inline"
         transform="translate(-1.6116895,-0.98439144)">
        <path
           fill="#943830"
           d="m 418.6,433 q -1.4,-4 -7.3,-3.7 0.4,-2.2 0,-4.5 a 2.5,2.5 -34.4 0 1 0.3,-1.8 q 2.6,-4 7,-1.3 5.9,3.7 0,11.2 z"
           id="path223" />
        <path
           fill="#de1211"
           d="m 431.8,432.7 q -2,-0.8 -4.6,1.7 l -9,4.5 q -3,1.4 -4,6.8 l -4.8,-2.6 a 2.3,2.3 -27.9 0 0 -0.9,-0.3 l -2.4,-0.2 2.1,-5.4 a 0.8,0.8 3.5 0 0 -1,-1 l -7.5,1.8 a 0.7,0.7 -6.4 0 1 -0.9,-0.7 c 0,-3.6 3.1,-5.2 6.4,-6.4 q 3,-1 6.1,-1.6 6,-0.2 7.3,3.6 7.3,-1.8 13.8,-5.6 a 0.5,0.5 8.7 0 1 0.6,0.8 q -0.6,0.5 -0.6,1.2 a 0.6,0.6 -89.3 0 0 0.7,0.7 l 1.8,-0.2 a 0.5,0.5 -81.7 0 1 0.5,0.7 l -0.2,0.4 a 1.1,1 -80.8 0 1 -1,0.7 q -1.3,0 -2.4,1.1 z"
           id="path227" />
        <path
           fill="#a1959f"
           d="m 406.1,442.6 2.4,0.2 a 2.3,2.3 -27.9 0 1 1,0.3 l 4.8,2.6 -0.3,15.3 q -2,-0.1 -3.8,-0.8 -0.5,-0.2 -0.8,1.5 l -0.5,-11.8 a 0.5,0.5 -24.6 0 0 -0.8,-0.3 l -5.6,5.9 -6.4,-2 z"
           id="path238" />
        <path
           fill="#69174f"
           d="m 396.1,453.6 6.4,1.9 q -0.5,1.4 -1.2,1.3 -6.2,-0.2 -5.2,-3.2 z"
           id="path249" />
        <path
           fill="#69174f"
           d="m 414,461 q 1.3,4 -4.6,0.7 0.3,-1.7 0.8,-1.5 1.8,0.7 3.8,0.8 z"
           id="path251" />
      </g>
      <use
         href="#guy2"
         id="use5"
         style="display:inline"
         transform="rotate(-45.185424,-23.029299,528.47632)"
         inkscape:transform-center-x="-13.218023"
         inkscape:transform-center-y="15.059468" />
    </g>
    <g
       id="g6"
       inkscape:label="guy1_full"
       style="display:inline">
      <g
         id="guy1"
         inkscape:label="guy1"
         style="display:inline">
        <path
           fill="#b197d1"
           d="m 371.3,160 -0.1,-0.3 q -1,2.7 -2.7,4.3 a 1.8,1.8 -41.3 0 0 -0.2,2.3 l 2.8,3.6 a 1.2,1.2 -18.4 0 0 1,0.5 q 1.3,0 2.7,-0.8 a 1.5,1.4 88.2 0 0 0.6,-0.7 q 0.9,-1.8 2.4,-3.1 l 1.2,0.3 10.5,1.5 a 2.1,2.1 9.4 0 1 1.8,2.5 l -0.1,0.7 a 2.6,2.6 6.6 0 1 -2.7,2.1 q -4.9,-0.2 -11.3,-0.8 c -4.5,-0.5 -5.3,2.7 -7.6,5.8 l -7.5,-6.5 q 3.5,-2.4 3.7,-6.2 0.1,-1.4 -1,-7.3 l -1.7,-7.4 q -0.6,-2.5 1,-4 a 1.7,1.7 -28.1 0 1 2.8,1 q 1.5,5.8 4.4,12.5 z"
           id="path6" />
        <path
           fill="#a1959f"
           d="m 383.7,159.2 q -2.8,-4 -4.3,-4.9 -2.3,-1.3 -5,0.3 a 0.3,0.3 72.3 0 1 -0.5,-0.2 l 0.1,-0.3 q 2.6,-3 5.6,-1.5 4,2 4.1,6.6 z"
           id="path7" />
        <path
           fill="#e6c8a6"
           d="m 374,154.1 v 0.3 a 0.3,0.3 72.3 0 0 0.3,0.2 q 2.8,-1.6 5.1,-0.3 1.5,0.9 4.3,5 -1,3 -4.6,5.6 -0.5,0.3 0,1.2 l -1.3,-0.3 -6.6,-6 v 0.2 q 1.5,-1.9 1.8,-4.4 c 0.1,-0.7 0.5,-1.2 1,-1.5 z"
           id="path9" />
        <path
           fill="#cf6cad"
           d="m 377.8,165.8 q -1.5,1.3 -2.4,3.1 a 1.5,1.4 88.2 0 1 -0.6,0.7 q -1.4,0.8 -2.7,0.8 a 1.2,1.2 -18.4 0 1 -1,-0.5 l -2.8,-3.6 a 1.8,1.8 -41.3 0 1 0.2,-2.3 q 1.6,-1.6 2.7,-4.3 l 6.6,6 z"
           id="path12" />
        <path
           fill="#f5c11a"
           d="m 362,171.4 7.6,6.5 q -2.2,7.3 -5.3,16.2 -0.3,1.1 0,1.7 -1.2,-1.5 -4,-3.8 -1.6,-1.2 -1,-3.2 l 2.4,-7.7 a 0.5,0.5 85.3 0 0 -0.7,-0.6 l -7.4,4 q -3.3,-0.8 -4.8,-3.8 6,-5.2 13.3,-9.3 z"
           id="path18" />
        <path
           fill="#0b79a8"
           d="m 348.8,180.8 q 1.5,3 4.8,3.7 c -3,3.3 -5.3,-0.3 -7,-2.3 a 1,1 72.9 0 1 0.8,-1.6 z"
           id="path21" />
        <path
           fill="#a1959f"
           d="m 359.2,188.8 q -0.5,2 1,3.2 2.9,2.3 4,3.8 -0.3,1.2 -1,1.3 a 0.4,0.3 52.8 0 1 -0.3,0 q -1,-0.6 -2.6,-2.4 -2.9,-2.9 -1,-5.9 z"
           id="path26" />
      </g>
      <use
         href="#guy1"
         id="use2"
         x="0"
         y="0"
         transform="rotate(-76.419485,489.23776,208.31759)"
         inkscape:transform-center-x="-22.566081"
         inkscape:transform-center-y="1.9989307" />
      <use
         href="#guy1"
         id="use3"
         x="0"
         y="0"
         transform="rotate(-99.752146,261.88178,301.55433)" />
    </g>
  </g>
  <g
     id="g1"
     inkscape:label="hand_nh_all"
     style="display:inline"
     sodipodi:insensitive="true">
    <path
       fill="#dd2a63"
       d="m 332.9,148.1 11.1,-16 c 1.68292,-2.34217 5.43638,0.0119 3.9,2.6 -5.4,8.93333 -9.2,14.96667 -11.4,18.1 -2.26187,7.49397 11.82435,-3.17606 14.2,-4.5 1.22232,-0.64536 2.63269,0.4584 2.3,1.8 -0.8,2.9 -7,7.2 -9,8.5 -13.48948,8.70289 -7.18897,11.937 -15.9,19 -5.08996,4.16451 -22.6,-1.21863 -22.6,-18.9 0,-7.7 0.7,-13.2 -1.9,-19.2 -0.78962,-0.8754 0.32126,-2.15718 1.3,-1.5 5.7,1.3 7.4,7.1 7.2,12.6 1.09213,3.21712 3.73777,1.03318 5.6,-5.4 l 6.2,-21.2 c 0.91857,-3.21092 5.8248,-2.2905 5.1,0.8 -2.1,8.7 -4,13.3 -3.6,19 0.0965,0.61956 0.86995,0.75019 1.1,-0.4 2.13333,-6.4 5.23333,-12.73333 9.3,-19 1.70343,-2.49257 5.58562,-0.76183 4.4,1.7 l -9,21.6 c -0.4421,0.4823 -6.7e-4,2.78094 1.7,0.4 z"
       id="hand_nh"
       inkscape:label="hand_nh"
       sodipodi:nodetypes="ccccccccscccccccccccc"
       style="display:inline;fill:#de2a63;fill-opacity:1" />
    <g
       id="g12"
       inkscape:label="vordo_hand_nh"
       style="display:inline">
      <use
         href="#hand_nh"
         id="use9"
         x="0"
         y="0"
         transform="matrix(-0.7204157,0.04776431,0.10085652,0.6394245,480.20256,76.696207)"
         inkscape:transform-center-x="16.596138"
         inkscape:transform-center-y="8.6592557"
         style="display:inline" />
      <use
         href="#hand_nh"
         id="use11"
         x="0"
         y="0"
         transform="matrix(0.41920487,0.02481255,0.01981798,-0.39047847,96.968428,370.79097)"
         inkscape:transform-center-x="-10.255847"
         inkscape:transform-center-y="-4.1083873" />
      <use
         href="#hand_nh"
         id="use16"
         x="0"
         y="0"
         transform="matrix(0.28179446,-0.61698655,-0.58611168,-0.36523454,383.76588,630.10796)"
         inkscape:transform-center-x="0.27121733"
         inkscape:transform-center-y="-17.137047" />
      <use
         href="#hand_nh"
         id="use18"
         x="0"
         y="0"
         transform="matrix(0.92064492,0.06551586,0.00168238,-0.93577148,46.45073,631.17679)"
         inkscape:transform-center-x="-22.35188"
         inkscape:transform-center-y="-9.6666877" />
      <use
         href="#hand_nh"
         id="use19"
         x="0"
         y="0"
         transform="matrix(-0.12848869,0.52472804,0.54304334,0.13876958,176.30668,222.67282)"
         inkscape:transform-center-x="-3.2840246"
         inkscape:transform-center-y="13.876959" />
      <use
         href="#hand_nh"
         id="use22"
         x="0"
         y="0"
         transform="matrix(-0.47503853,0.20498246,0.23140522,0.44015893,259.09008,192.85433)"
         inkscape:transform-center-x="8.4557137"
         inkscape:transform-center-y="9.5224427" />
      <use
         href="#hand_nh"
         id="use23"
         x="0"
         y="0"
         transform="matrix(-0.2441056,0.71654835,0.73773786,0.20037409,62.938314,63.28052)"
         inkscape:transform-center-x="-2.8538774"
         inkscape:transform-center-y="18.246629" />
      <use
         href="#hand_nh"
         id="use25"
         x="0"
         y="0"
         transform="matrix(-0.20668338,0.53402453,0.64459712,0.17907651,64.878936,48.906638)"
         inkscape:transform-center-x="-2.2429853"
         inkscape:transform-center-y="13.823889" />
      <use
         href="#hand_nh"
         id="use33"
         x="0"
         y="0"
         transform="matrix(0.31421873,-0.29692723,0.30175699,0.30918952,91.861611,339.8089)"
         inkscape:transform-center-x="-9.4069867"
         inkscape:transform-center-y="-3.2322203" />
      <use
         href="#hand_nh"
         id="use39"
         x="0"
         y="0"
         transform="matrix(0.21527481,-0.31800863,0.32192633,0.21648291,217.15418,325.39672)"
         inkscape:transform-center-x="-8.5552278"
         inkscape:transform-center-y="-5.0319533"
         style="display:inline" />
      <use
         href="#hand_nh"
         id="use38"
         x="0"
         y="0"
         transform="matrix(0.34389086,-0.79328061,0.81518623,0.33464985,-88.818416,395.53223)"
         inkscape:transform-center-x="-17.019821"
         inkscape:transform-center-y="-14.831721"
         inkscape:label="use38" />
    </g>
    <g
       id="g11"
       inkscape:label="amarillo_hand_nh"
       style="display:inline"
       filter="url(#yellow1)">
      <use
         href="#hand_nh"
         id="use10"
         x="0"
         y="0"
         transform="matrix(-0.27928068,-0.35729165,-0.32552694,0.22229036,336.4482,290.98638)"
         inkscape:transform-center-x="9.2293925"
         inkscape:transform-center-y="-6.115531" />
      <use
         href="#hand_nh"
         id="use13"
         x="0"
         y="0"
         transform="matrix(-0.51592576,0.4800449,0.53735839,0.46229398,224.16576,30.140063)"
         inkscape:transform-center-x="5.9074171"
         inkscape:transform-center-y="14.415343" />
      <use
         href="#hand_nh"
         id="use14"
         x="0"
         y="0"
         transform="matrix(0.41893574,-0.32074846,-0.20743404,-0.45812024,363.06782,536.27792)"
         inkscape:transform-center-x="-7.439098"
         inkscape:transform-center-y="-12.460206" />
      <use
         href="#hand_nh"
         id="use15"
         x="0"
         y="0"
         transform="matrix(0.20040021,-0.59630202,-0.56659476,-0.15229431,464.1756,465.48363)"
         inkscape:transform-center-x="1.9855699"
         inkscape:transform-center-y="-15.142989" />
      <use
         href="#hand_nh"
         id="use17"
         x="0"
         y="0"
         transform="matrix(0.44413841,-0.26762509,-0.26389108,-0.45700152,230.77434,559.44177)"
         inkscape:transform-center-x="-7.4187984"
         inkscape:transform-center-y="-11.155974" />
      <use
         href="#hand_nh"
         id="use20"
         x="0"
         y="0"
         transform="matrix(-0.19641912,0.42071857,0.45130095,0.20797441,193.47857,225.90818)"
         inkscape:transform-center-x="-0.42058709"
         inkscape:transform-center-y="11.177043" />
      <use
         href="#hand_nh"
         id="use29"
         x="0"
         y="0"
         transform="matrix(-0.00910361,0.6861294,-0.69821094,-0.00728851,490.81544,73.101872)"
         inkscape:transform-center-x="8.133658"
         inkscape:transform-center-y="16.127541" />
    </g>
    <g
       id="g10"
       inkscape:label="green_hand_nh"
       style="display:inline"
       filter="url(#green1)">
      <use
         href="#hand_nh"
         id="use26"
         x="0"
         y="0"
         transform="matrix(0.33926204,0.0452603,-0.04992498,0.37422752,308.53925,274.02236)"
         inkscape:transform-center-x="-7.754541"
         inkscape:transform-center-y="5.3920189" />
      <use
         href="#hand_nh"
         id="use27"
         x="0"
         y="0"
         transform="matrix(-0.71686712,-0.15380319,0.15947291,-0.69139922,305.85085,568.85463)"
         inkscape:transform-center-x="15.295423"
         inkscape:transform-center-y="-11.836464" />
      <use
         href="#hand_nh"
         id="use28"
         x="0"
         y="0"
         transform="matrix(0.66092572,0.23436058,-0.26924865,0.59920626,198.89591,256.38064)"
         inkscape:transform-center-x="-12.268044"
         inkscape:transform-center-y="12.029462" />
      <use
         href="#hand_nh"
         id="use30"
         x="0"
         y="0"
         transform="matrix(0.51017276,0.04221457,-0.120104,0.54513358,128.89591,160.68717)"
         inkscape:transform-center-x="-10.684619"
         inkscape:transform-center-y="7.2822785" />
      <use
         href="#hand_nh"
         id="use36"
         x="0"
         y="0"
         transform="matrix(0.41779117,-0.53229646,0.57356466,0.38773093,-55.714194,513.38011)"
         inkscape:transform-center-x="-15.996814"
         inkscape:transform-center-y="-8.089104" />
      <use
         href="#hand_nh"
         id="use41"
         x="0"
         y="0"
         transform="matrix(0.71088144,0.17900915,-0.1845721,0.69770792,201.49367,28.730915)"
         inkscape:transform-center-x="-15.042012"
         inkscape:transform-center-y="12.094568"
         style="display:inline" />
    </g>
    <g
       id="blue_hand_nh"
       style="display:inline"
       filter="url(#blue1)">
      <use
         href="#hand_nh"
         id="use31"
         x="0"
         y="0"
         transform="matrix(0.59829002,-0.15222835,0.14323657,0.60425519,-49.324801,180.83703)"
         inkscape:transform-center-x="-15.597109"
         inkscape:transform-center-y="3.4319693" />
      <use
         href="#hand_nh"
         id="use32"
         x="0"
         y="0"
         transform="matrix(0.6176899,0.11222223,-0.17107548,0.63490942,87.518969,94.102594)"
         inkscape:transform-center-x="-12.485914"
         inkscape:transform-center-y="9.7614498" />
      <use
         href="#hand_nh"
         id="use35"
         x="0"
         y="0"
         transform="matrix(0.50432581,-0.44925212,0.46526241,0.48216377,5.1403884,512.94499)"
         inkscape:transform-center-x="-14.343123"
         inkscape:transform-center-y="-4.8470763" />
      <use
         href="#hand_nh"
         id="use40"
         x="0"
         y="0"
         transform="matrix(0.54332984,-0.15231371,0.15850654,0.55840735,143.40044,181.69878)"
         inkscape:transform-center-x="-14.324371"
         inkscape:transform-center-y="2.9736696" />
    </g>
    <g
       id="g9"
       inkscape:label="purple_hand_nh"
       style="display:inline"
       filter="url(#purple1)">
      <use
         href="#hand_nh"
         id="use12"
         x="0"
         y="0"
         transform="matrix(-0.52684541,-0.27239037,-0.27848734,0.53519712,499.68561,146.48668)"
         inkscape:transform-center-x="14.010851"
         inkscape:transform-center-y="-0.21243635" />
      <use
         href="#hand_nh"
         id="use21"
         x="0"
         y="0"
         transform="matrix(-0.11057114,0.50830076,0.52436914,0.13366116,108.40487,172.88677)"
         inkscape:transform-center-x="-3.5467793"
         inkscape:transform-center-y="12.896743" />
      <use
         href="#hand_nh"
         id="use24"
         x="0"
         y="0"
         transform="matrix(-0.53809256,0.75855985,0.83497737,0.51124888,141.31829,-34.814134)"
         inkscape:transform-center-x="2.9375047"
         inkscape:transform-center-y="20.925663" />
      <use
         href="#hand_nh"
         id="use34"
         x="0"
         y="0"
         transform="matrix(0.42480924,-0.45801183,0.43079464,0.45164828,69.216167,380.43714)"
         inkscape:transform-center-x="-13.579692"
         inkscape:transform-center-y="-5.4256466" />
      <use
         href="#hand_nh"
         id="use37"
         x="0"
         y="0"
         transform="matrix(0.42498435,-0.58034574,0.59353392,0.41554129,-44.446933,299.19601)"
         inkscape:transform-center-x="-16.316917"
         inkscape:transform-center-y="-8.8903499" />
    </g>
  </g>
  <g
     id="hand"
     style="display:inline"
     inkscape:label="hand_hole_all"
     sodipodi:insensitive="true">
    <g
       filter="url(#yellow1)"
       id="g2"
       inkscape:label="g2">
      <g
         id="hand_hole"
         inkscape:label="hand_hole"
         style="display:inline;fill:#de2a63;fill-opacity:1">
        <path
           fill="#f5c11a"
           d="m 117.9,416.6 11.6,1.2 c 4.6,0.6 3.7,4.4 0.3,5.5 -10.32875,3.61506 -17.04415,-7.11102 -11.9,-6.7 z"
           id="path216"
           sodipodi:nodetypes="cccc"
           style="fill:#de2a63;fill-opacity:1" />
        <path
           fill="#f5c11a"
           d="m 104.2,443.4 c 5.33333,-2 9.33333,-3.23333 12,-3.7 l 7.2,-1 c 3.42825,-1.1972 6.72437,-3.16218 10,-4.8 0.72265,-0.35279 1.29162,-0.95731 1.6,-1.7 1.3,-3.2 2.9,-8.3 5.2,-10 6.6,-4.7 16,-0.8 18.2,6.9 1.71313,6.21011 -11.86177,4.24105 -14.5,5.8 -7.81384,4.88365 0.43727,14.18679 5.2,7.9 2.71949,-4.47992 5.74503,-7.53367 10.2,-10.2 0.69072,-0.44253 6.76805,-0.9746 7,6.1 0,4.92604 -14.96622,19.47495 -17.7,18.7 -2.35334,-0.6033 -4.81909,-1.03803 -7.1,-1.8 -5.14104,-4.5535 -8.13109,-3.03259 -9.9,-5.2 l -3.5,-4.5 c -0.696,-0.93072 -1.85412,-1.39397 -3,-1.2 -7.1877,1.02275 -13.87313,3.04145 -20.5,5.9 -0.6,0.26667 -1.76667,0.33333 -3.5,0.2 -1.828963,-0.2034 -3.773479,-4.6997 3.1,-7.4 z"
           id="path219"
           sodipodi:nodetypes="ccccccccccccccccccc"
           style="fill:#de2a63;fill-opacity:1" />
        <path
           fill="#f5c11a"
           d="m 119.9,458.5 c -3.57478,2.11674 -9.74037,10.57912 -14.5,7.8 -5.3,-4 6,-9.1 8.5,-10.1 2.86667,-1.2 5.2,-2.63333 7,-4.3 2.7,-2.7 5,-4 8,-0.8 2.82563,2.67542 -6.76842,5.40823 -9,7.4 z"
           id="path245"
           sodipodi:nodetypes="cccccc"
           style="fill:#de2a63;fill-opacity:1" />
        <path
           d="m 147.73384,459.51362 c -0.21482,2.14825 -3.23259,13.8854 -6.03384,16.08638 -2.9,2.3 -5.6,-1.6 -3.8,-4.5 l 6.2,-9.5 c 0.66667,-1 1.66667,-1.83333 3,-2.5 0.39191,-0.33517 0.63384,0.41362 0.63384,0.41362 z"
           id="path45"
           style="fill:#de2a63;fill-opacity:1"
           sodipodi:nodetypes="cccccc" />
        <path
           d="m 136.96989,455.35988 c 1.64422,1.13326 2.03865,3.35042 0.83011,4.94012 -2.66667,3.73333 -5.33333,6.73333 -8,9 -1.77892,2.04182 -3.29422,4.31778 -4.9,6.5 -1.8,2.5 -5.4,2.8 -6.2,-0.8 -0.8,-3 3.1,-5.3 6.3,-7.7 1.22695,-0.96477 2.21859,-2.19577 2.9,-3.6 l 3.9,-7.7 c 1.36539,-2.83423 4.03539,-1.42127 5.16989,-0.64012 z"
           id="path250"
           style="fill:#de2a63;fill-opacity:1"
           sodipodi:nodetypes="ccccccccc" />
      </g>
    </g>
    <g
       id="g16"
       inkscape:label="vordo_hand"
       style="display:inline">
      <use
         href="#hand_hole"
         id="use56"
         x="0"
         y="0"
         transform="matrix(-0.52499278,0.32497319,-0.28968348,-0.57002426,450.32831,357.00878)"
         inkscape:transform-center-x="15.736452"
         inkscape:transform-center-y="-11.647983" />
      <use
         href="#hand_hole"
         id="use64"
         x="0"
         y="0"
         transform="matrix(-0.44794272,0.26851222,-0.28122974,-0.4347178,426.97576,415.24858)" />
      <use
         href="#hand_hole"
         id="use68"
         x="0"
         y="0"
         transform="matrix(-0.10788482,0.55364425,0.65827952,0.07284248,143.23163,118.23718)"
         inkscape:transform-center-x="-19.342929"
         inkscape:transform-center-y="10.844096" />
      <use
         href="#hand_hole"
         id="use70"
         x="0"
         y="0"
         transform="matrix(-0.51784088,-0.60966901,0.59184036,-0.53923342,263.27224,608.03234)"
         inkscape:transform-center-x="12.719627"
         inkscape:transform-center-y="22.462788" />
      <use
         href="#hand_hole"
         id="use71"
         x="0"
         y="0"
         transform="matrix(0.04855365,0.58733608,0.59117011,-0.00516353,38.487626,384.17139)"
         inkscape:transform-center-x="-18.51071"
         inkscape:transform-center-y="9.3269687" />
      <use
         href="#hand_hole"
         id="use72"
         x="0"
         y="0"
         transform="matrix(-0.579955,-0.04393867,0.04105335,-0.62071549,441.26051,619.39063)" />
      <use
         href="#hand_hole"
         id="use76"
         x="0"
         y="0"
         transform="matrix(-0.16404349,-0.84226501,-0.94400647,0.18780739,618.36372,509.27875)"
         inkscape:transform-center-x="29.639713"
         inkscape:transform-center-y="-8.7684891"
         style="display:inline" />
    </g>
    <g
       id="g15"
       inkscape:label="purple_hand"
       style="display:inline"
       filter="url(#purple1)">
      <use
         href="#hand_hole"
         id="use46"
         transform="matrix(-0.37155389,0.10446306,0.19308206,0.42593428,318.17087,182.88542)"
         inkscape:transform-center-x="0.31557079"
         inkscape:transform-center-y="13.468399" />
      <use
         href="#hand_hole"
         id="use60"
         x="0"
         y="0"
         transform="matrix(0.33946059,0.50429728,0.52610404,-0.3096881,-87.517082,319.19843)" />
      <use
         href="#hand_hole"
         id="use66"
         x="0"
         y="0"
         transform="matrix(-0.55670648,0.3274444,0.29991442,0.58510373,247.23336,-77.218615)"
         inkscape:transform-center-x="0.39683561"
         inkscape:transform-center-y="20.536883" />
      <use
         href="#hand_hole"
         id="use69"
         x="0"
         y="0"
         transform="matrix(-0.52866225,0.31757078,0.37588412,0.65311246,313.76175,-63.757548)"
         inkscape:transform-center-x="18.049214"
         inkscape:transform-center-y="7.2128429" />
      <use
         href="#hand_hole"
         id="use58"
         x="0"
         y="0"
         transform="matrix(-0.46302035,0.07325445,0.17631963,0.45606961,228.13047,136.28868)"
         inkscape:transform-center-x="2.6054023"
         inkscape:transform-center-y="14.264775"
         style="display:inline" />
    </g>
    <g
       id="g3"
       inkscape:label="yellow_hand"
       filter="url(#yellow1)"
       style="display:inline">
      <use
         href="#hand_hole"
         id="use43"
         transform="matrix(0.22248061,0.27015336,0.26011739,-0.22277846,204.03677,406.61701)" />
      <use
         href="#hand_hole"
         id="use44"
         transform="matrix(0.04655056,0.34806163,0.36051289,-0.05892011,120.7383,183.02844)"
         inkscape:transform-center-x="-11.031514"
         inkscape:transform-center-y="3.9427471" />
      <use
         href="#hand_hole"
         id="use49"
         transform="matrix(-0.41538201,-0.46259306,0.39393943,-0.31928685,347.29572,529.80653)"
         inkscape:transform-center-x="-5.1256977"
         inkscape:transform-center-y="-15.197857" />
      <use
         href="#hand_hole"
         id="use50"
         transform="matrix(0.02706798,0.60677268,0.61460165,-0.1171899,133.48523,372.64675)" />
      <use
         href="#hand_hole"
         id="use57"
         x="0"
         y="0"
         transform="matrix(0.34558926,0.38849618,0.39754841,-0.32944354,-43.707245,420.24237)"
         inkscape:transform-center-x="-16.495774"
         inkscape:transform-center-y="-3.7289615" />
      <use
         href="#hand_hole"
         id="use52"
         transform="matrix(-0.24534483,-0.6156406,0.61997893,-0.23971653,196.26583,640.35931)"
         inkscape:transform-center-x="-15.333066"
         inkscape:transform-center-y="-16.193769"
         style="display:inline" />
      <use
         href="#hand_hole"
         id="use59"
         x="0"
         y="0"
         transform="matrix(0.26609199,0.41401605,0.39498194,-0.26181007,106.19869,337.90085)"
         inkscape:transform-center-x="-15.224229"
         inkscape:transform-center-y="-0.77168727"
         style="display:inline" />
    </g>
    <g
       id="g13"
       inkscape:label="green_hand"
       filter="url(#green1)"
       style="display:inline">
      <use
         href="#hand_hole"
         id="use45"
         transform="matrix(0.10883734,0.41314852,0.52540585,-0.14209509,75.088958,205.24006)"
         inkscape:transform-center-x="-16.539368"
         inkscape:transform-center-y="3.0564929" />
      <use
         href="#hand_hole"
         id="use51"
         transform="matrix(-0.42138032,-0.19934064,-0.21620063,0.48396556,462.08268,339.18942)"
         inkscape:transform-center-x="12.033441"
         inkscape:transform-center-y="11.527505" />
      <use
         href="#hand_hole"
         id="use53"
         transform="matrix(0.21690763,0.34397196,0.45532696,-0.32073059,91.83113,442.60171)"
         inkscape:transform-center-x="-16.479216"
         inkscape:transform-center-y="-4.143739" />
      <use
         href="#hand_hole"
         id="use65"
         x="0"
         y="0"
         transform="matrix(0.43545046,0.53738891,0.56992343,-0.41963824,-83.531889,331.98376)" />
      <use
         href="#hand_hole"
         id="use73"
         x="0"
         y="0"
         transform="matrix(-0.64456575,0.2723264,0.24701055,0.66392989,428.1815,76.533428)"
         inkscape:transform-center-x="3.511303"
         inkscape:transform-center-y="22.656209" />
    </g>
    <g
       id="g14"
       inkscape:label="blue_hand"
       filter="url(#blue1)"
       style="display:inline">
      <use
         href="#hand_hole"
         id="use47"
         transform="matrix(-0.00922635,0.46122848,0.48369108,-0.06546432,168.288,191.32841)"
         inkscape:transform-center-x="-14.557577"
         inkscape:transform-center-y="5.7648688" />
      <use
         href="#hand_hole"
         id="use48"
         transform="matrix(0.57770088,0.25337108,0.05192001,-0.52359039,191.76231,375.25344)"
         inkscape:transform-center-x="-10.493547"
         inkscape:transform-center-y="-12.039029" />
      <use
         href="#hand_hole"
         id="use54"
         transform="matrix(0.13722824,-0.4209428,-0.48362843,-0.15816141,463.91024,501.02924)"
         inkscape:transform-center-x="12.543886"
         inkscape:transform-center-y="-11.071084" />
      <use
         href="#hand_hole"
         id="use55"
         transform="matrix(0.42099156,0.11213056,0.07632035,-0.37218868,42.121366,552.9723)"
         inkscape:transform-center-x="-8.9477938"
         inkscape:transform-center-y="-9.6429942" />
      <use
         href="#hand_hole"
         id="use61"
         x="0"
         y="0"
         transform="matrix(-0.47863298,0.16637351,0.1403821,0.55969401,311.44805,148.58688)" />
      <use
         href="#hand_hole"
         id="use62"
         x="0"
         y="0"
         transform="matrix(0.53115701,0.22007973,-0.19459414,0.55796946,97.484585,95.928138)"
         inkscape:transform-center-x="-3.5502704"
         inkscape:transform-center-y="18.155654" />
      <use
         href="#hand_hole"
         id="use63"
         x="0"
         y="0"
         transform="matrix(0.76238264,-0.4591664,-0.3615065,-0.54782662,210.59531,597.45985)"
         inkscape:transform-center-x="-1.9270637"
         inkscape:transform-center-y="-22.156846" />
      <use
         href="#hand_hole"
         id="use67"
         x="0"
         y="0"
         transform="matrix(-0.42584571,0.2586829,0.30201451,0.41553001,275.26437,94.135253)"
         inkscape:transform-center-x="-2.3538419"
         inkscape:transform-center-y="15.432968" />
      <use
         href="#hand_hole"
         id="use75"
         x="0"
         y="0"
         transform="matrix(-0.48512478,-0.74437705,-0.80798486,0.52866374,649.47737,375.59083)"
         inkscape:transform-center-x="28.401475"
         inkscape:transform-center-y="4.18956" />
      <use
         href="#hand_hole"
         id="use42"
         transform="matrix(-0.60836982,0.37530859,0.24290894,0.51549615,406.0469,84.189199)"
         style="display:inline"
         inkscape:transform-center-x="3.7451775"
         inkscape:transform-center-y="-18.200299" />
      <use
         href="#hand_hole"
         id="use74"
         x="0"
         y="0"
         transform="matrix(-0.86083538,-0.02855649,-0.15011101,0.90773155,571.57895,86.227061)"
         inkscape:transform-center-x="17.226062"
         inkscape:transform-center-y="26.689635"
         style="display:inline" />
    </g>
  </g>
  <g
     id="g4"
     inkscape:label="tree"
     style="display:inline"
     sodipodi:insensitive="true">
    <use
       href="#pencil"
       id="use77"
       transform="matrix(0.38289083,-0.27547796,0.23703164,0.32945372,-42.388544,185.44645)"
       inkscape:transform-center-x="-35.428188"
       inkscape:transform-center-y="47.484977"
       x="0"
       y="0"
       inkscape:label="green" />
    <use
       href="#pencil"
       id="use78"
       x="0"
       y="0"
       transform="matrix(0.42655374,-0.39325142,0.19664468,0.21329745,51.763256,330.99521)"
       inkscape:transform-center-x="-30.277076"
       inkscape:transform-center-y="32.318736"
       filter="url(#blue)"
       inkscape:label="blue" />
    <use
       href="#pencil"
       id="use79"
       transform="matrix(0.63357135,0,0,0.50175976,42.80881,48.246233)"
       x="0"
       y="0"
       filter="url(#purple)"
       inkscape:label="purple" />
    <use
       href="#pencil"
       id="use80"
       transform="matrix(0.52220772,0.085682,-0.04371443,0.26642721,238.17249,83.775976)"
       inkscape:transform-center-x="6.7967812"
       inkscape:transform-center-y="36.384364"
       x="0"
       y="0"
       filter="url(#purple)"
       inkscape:label="purple" />
    <use
       href="#pencil"
       id="use81"
       transform="matrix(0.37787544,0.45541901,-0.38229292,0.31720043,445.1402,-6.8667914)"
       inkscape:transform-center-x="55.751803"
       inkscape:transform-center-y="47.241481"
       x="0"
       y="0"
       filter="url(#yellow)"
       inkscape:label="yellow" />
    <use
       href="#pencil"
       id="use82"
       transform="matrix(0.5621494,0,0,0.48846131,143.19739,74.91325)"
       inkscape:transform-center-x="-0.063797755"
       inkscape:transform-center-y="68.011053"
       x="0"
       y="0"
       filter="url(#vordo)"
       inkscape:label="vordo" />
    <use
       href="#pencil"
       transform="matrix(0.34697023,-0.3772036,0.3772036,0.34697023,-60.62592,389.92281)"
       id="use83"
       inkscape:transform-center-x="-54.923523"
       inkscape:transform-center-y="50.585639"
       x="0"
       y="0"
       filter="url(#purple)"
       inkscape:label="purple" />
    <use
       href="#pencil"
       transform="matrix(0.33887525,-0.45827313,0.38555794,0.28607779,-71.989138,359.83417)"
       id="use1-3"
       inkscape:transform-center-x="-56.025265"
       inkscape:transform-center-y="42.619052"
       x="0"
       y="0"
       filter="url(#yellow)"
       inkscape:label="yellow" />
    <use
       href="#pencil"
       id="use84"
       x="0"
       y="0"
       transform="matrix(0.30613621,0.46455421,-0.42496961,0.28005039,462.41053,208.82654)"
       inkscape:transform-center-x="60.968452"
       inkscape:transform-center-y="41.696674"
       filter="url(#vordo)"
       inkscape:label="vordo" />
    <use
       href="#pencil"
       id="use85"
       x="0"
       y="0"
       transform="matrix(0.29632449,0.46883292,-0.34345976,0.21708275,417.517,142.597)"
       inkscape:transform-center-x="49.19871"
       inkscape:transform-center-y="33.361405"
       filter="url(#blue)"
       inkscape:label="blue"
       style="display:inline" />
    <g
       id="pencil"
       inkscape:label="pencil"
       transform="translate(-0.00464131,-6.5423541e-5)"
       style="display:inline">
      <path
         fill="#86b11f"
         d="m 277.6,405 c -3.97965,5.288 -8.90429,5.3947 -10.91525,0.70574 0,0 3.13609,-22.58935 5.76525,-22.58779 2.56859,0.002 5.15,21.88205 5.15,21.88205 z"
         id="path196"
         sodipodi:nodetypes="ccsc" />
      <path
         fill="#e6c8a6"
         d="m 285.11308,435.10083 c -2.66667,-0.66667 -5.51928,-0.10334 -8.51928,1.76336 -1.73333,-2.66667 -4.9,-2.7 -9.5,-0.1 -1.6,-2 -4.21984,-2.43999 -7.75317,-1.70666 2.34319,-9.55676 5.41028,-21.51417 7.35937,-29.45753 4.44667,5.77705 5.68572,-3.57261 10.83308,-1.16533 z"
         id="path210"
         sodipodi:nodetypes="ccccccc" />
      <path
         fill="#688a21"
         d="m 267.1,436.6 1,7.3 0.3,217.9 -9.56385,-0.025 c -0.27614,0 -0.48065,-0.2171 -0.5,-0.5 L 258.3,482.8 v -43 c 0,-1.33333 0.36667,-3 1.1,-5 3.53333,-0.73333 6.1,-0.13333 7.7,1.8 z"
         id="path231"
         sodipodi:nodetypes="ccccccscc" />
      <path
         fill="#86b11f"
         d="m 276.6,436.7 0.6,7.4 c 0.26667,2.66667 0.4,5.13333 0.4,7.4 l -0.2,210.3 h -9 l -0.37087,-217.80338 v -0.1 l -0.9552,-7.31568 c 4.53333,-2.66667 7.79274,-2.61427 9.52607,0.11906 z"
         id="path232"
         sodipodi:nodetypes="ccccccccc" />
      <path
         fill="#a2c316"
         d="m 285.1,435 1.3,4.5 c 0.0168,0.13173 0.0168,0.26616 0,0.4 0.51369,73.5987 0.26166,147.27815 0.39856,220.87934 0,0.55228 -0.44772,0.99884 -1,1 l -8.41555,0.0177 c 0,0 -0.0634,-140.2404 0.21699,-210.29706 0,-2.33333 -0.13333,-4.8 -0.4,-7.4 l -0.6,-7.4 c 3.06667,-1.86667 5.9,-2.46667 8.5,-1.8 z"
         id="path233"
         sodipodi:nodetypes="ccccscccccc" />
    </g>
  </g>
  <path
     fill="#ffffff"
     d="m 855.45695,414.65835 c -0.1,4.3 0,13 -3,15.6 a 1.4,1.4 0 0 1 -2.3,-0.8 c -1,-4.5 -0.4,-10.4 -0.3,-14.9 0,-4.4 -0.3,-10.4 0.8,-14.8 a 1.4,1.4 0 0 1 2.4,-0.7 c 2.8,2.6 2.4,11.3 2.4,15.6 m -56,34.2 q -0.7,-0.2 -1.2,-0.9 1.1,-10 2.7,-19.6 0.2,-1 0.8,-1.8 a 0.7,0.7 0 0 1 1.3,0.3 l 4,20.4 a 1,1 0 0 1 -1.1,1.3 z m -268.7,171.4 a 0.4,0.4 0 0 1 -0.4,-0.4 v -0.1 a 5.5,5.5 0 0 1 5.4,-5.6 h 0.1 a 5.5,5.5 0 0 1 5.5,5.5 v 0.1 a 0.4,0.4 0 0 1 -0.4,0.4 z m 125.2,6.5 a 5.4,5.4 0 0 1 -5.4,5.4 h -0.8 a 5.4,5.4 0 0 1 -5.4,-5.4 v -6.4 a 5.4,5.4 0 0 1 5.4,-5.4 h 0.8 a 5.4,5.4 0 0 1 5.4,5.5 z m -197.1,67.5 a 0.4,0.4 0 0 1 -0.5,-0.5 v -0.1 a 5.4,5.4 0 0 1 5.4,-5.5 h 0.3 a 5.4,5.4 0 0 1 5.3,5.5 v 0.1 a 0.4,0.4 0 0 1 -0.4,0.5 z m 121.7,0 a 1,1 0 0 1 -0.6,-0.7 5.3,5.3 0 0 1 5.3,-5.4 h 0.2 a 5.3,5.3 0 0 1 5.3,5.3 1,1 0 0 1 -0.6,0.7 z m -21.9,6.8 a 5,5 0 0 1 -5,5 h -0.8 a 5,5 0 0 1 -5,-5.2 v -6.8 a 5,5 0 0 1 5.2,-5 h 0.7 a 5,5 0 0 1 5,5.1 z m 166.3,-0.3 a 5.4,5.4 0 0 1 -5.5,5.4 h -0.8 a 5.4,5.4 0 0 1 -5.4,-5.5 v -6.3 a 5.4,5.4 0 0 1 5.5,-5.4 h 0.8 a 5.4,5.4 0 0 1 5.4,5.5 z m -201.6,-1.4 q 0.6,7.4 -6.7,7.4 a 2.7,3.2 82.3 0 1 -2.9,-1.9 c -1,-3 1,-5.2 4,-5.7 q 2.2,-0.4 5,-0.4 z"
     id="path267-6" />
</svg>
